<svg xmlns="http://www.w3.org/2000/svg" xmlns:xlink="http://www.w3.org/1999/xlink"><symbol id="bell" viewBox="0 0 1792 1792"><path d="M912 1696q0-16-16-16-59 0-101.5-42.5T752 1536q0-16-16-16t-16 16q0 73 51.5 124.5T896 1712q16 0 16-16zm816-288q0 52-38 90t-90 38h-448q0 106-75 181t-181 75-181-75-75-181H192q-52 0-90-38t-38-90q50-42 91-88t85-119.5 74.5-158.5 50-206T384 576q0-152 117-282.5T808 135q-8-19-8-39 0-40 28-68t68-28 68 28 28 68q0 20-8 39 190 28 307 158.5T1408 576q0 139 19.5 260t50 206 74.5 158.5 85 119.5 91 88z"/></symbol><symbol id="book" viewBox="0 0 1792 1792"><path d="M1703 478q40 57 18 129l-275 906q-19 64-76.5 107.5T1247 1664H324q-77 0-148.5-53.5T76 1479q-24-67-2-127 0-4 3-27t4-37q1-8-3-21.5t-3-19.5q2-11 8-21t16.5-23.5T116 1179q23-38 45-91.5t30-91.5q3-10 .5-30t-.5-28q3-11 17-28t17-23q21-36 42-92t25-90q1-9-2.5-32t.5-28q4-13 22-30.5t22-22.5q19-26 42.5-84.5T404 411q1-8-3-25.5t-2-26.5q2-8 9-18t18-23 17-21q8-12 16.5-30.5t15-35 16-36 19.5-32 26.5-23.5 36-11.5T620 134l-1 3q38-9 51-9h761q74 0 114 56t18 130l-274 906q-36 119-71.5 153.5T1089 1408H220q-27 0-38 15-11 16-1 43 24 70 144 70h923q29 0 56-15.5t35-41.5l300-987q7-22 5-57 38 15 59 43zm-1064 2q-4 13 2 22.5t20 9.5h608q13 0 25.5-9.5T1311 480l21-64q4-13-2-22.5t-20-9.5H702q-13 0-25.5 9.5T660 416zm-83 256q-4 13 2 22.5t20 9.5h608q13 0 25.5-9.5T1228 736l21-64q4-13-2-22.5t-20-9.5H619q-13 0-25.5 9.5T577 672z"/></symbol><symbol id="cross-o" viewBox="0 0 1792 1792"><path d="M778.305 129.084v329.018H378.332v242.982h399.973v950.441h242.982V701.084h399.973V458.102h-399.973V129.084H778.305zm20 20h202.982v329.018h399.973v202.982h-399.973l-2 948.441H800.305V679.084H400.332l-2-200.982h399.973V149.084z"/></symbol><symbol id="cross" viewBox="0 0 1792 1792"><path d="M778.305 129.084v329.018H378.332v242.982h399.973v950.441h242.982V701.084h399.973V458.102h-399.973V129.084H778.305"/></symbol><symbol id="facebook" viewBox="0 0 1024 1792"><path d="M959 12v264H802q-86 0-116 36t-30 108v189h293l-39 296H656v759H350V905H95V609h255V391q0-186 104-288.5T731 0q147 0 228 12z"/></symbol><symbol id="star" viewBox="0 0 1792 1792"><path d="M1728 647q0 22-26 48l-363 354 86 500q1 7 1 20 0 21-10.5 35.5T1385 1619q-19 0-40-12l-449-236-449 236q-22 12-40 12-21 0-31.5-14.5T365 1569q0-6 2-20l86-500L89 695q-25-27-25-48 0-37 56-46l502-73L847 73q19-41 49-41t49 41l225 455 502 73q56 9 56 46z"/></symbol></svg>